<svg xmlns="http://www.w3.org/2000/svg" viewBox="0 0 98 124" width="98" height="124" role="img" aria-label="Progrid">
  <rect x="0" y="0" width="20" height="20" rx="4.5" fill="#ffffff"/>
  <rect x="26" y="0" width="20" height="20" rx="4.5" fill="#ffffff"/>
  <rect x="52" y="0" width="20" height="20" rx="4.5" fill="#ffffff"/>
  <rect x="78" y="0" width="20" height="20" rx="4.5" fill="rgba(255,255,255,0.28)"/>
  <rect x="0" y="26" width="20" height="20" rx="4.5" fill="#ffffff"/>
  <rect x="26" y="26" width="20" height="20" rx="4.5" fill="rgba(255,255,255,0.28)"/>
  <rect x="52" y="26" width="20" height="20" rx="4.5" fill="rgba(255,255,255,0.28)"/>
  <circle cx="88.0" cy="36.0" r="10.0" fill="#1bb9e0"/>
  <rect x="0" y="52" width="20" height="20" rx="4.5" fill="#ffffff"/>
  <rect x="26" y="52" width="20" height="20" rx="4.5" fill="#ffffff"/>
  <rect x="52" y="52" width="20" height="20" rx="4.5" fill="#ffffff"/>
  <rect x="78" y="52" width="20" height="20" rx="4.5" fill="rgba(255,255,255,0.28)"/>
  <rect x="0" y="78" width="20" height="20" rx="4.5" fill="#ffffff"/>
  <rect x="26" y="78" width="20" height="20" rx="4.5" fill="rgba(255,255,255,0.28)"/>
  <rect x="52" y="78" width="20" height="20" rx="4.5" fill="rgba(255,255,255,0.28)"/>
  <rect x="78" y="78" width="20" height="20" rx="4.5" fill="rgba(255,255,255,0.28)"/>
  <rect x="0" y="104" width="20" height="20" rx="4.5" fill="#ffffff"/>
  <rect x="26" y="104" width="20" height="20" rx="4.5" fill="rgba(255,255,255,0.28)"/>
  <rect x="52" y="104" width="20" height="20" rx="4.5" fill="rgba(255,255,255,0.28)"/>
  <rect x="78" y="104" width="20" height="20" rx="4.5" fill="rgba(255,255,255,0.28)"/>
</svg>
