<svg xmlns="http://www.w3.org/2000/svg" viewBox="0 0 140 140" width="140" height="140"><rect width="140" height="140" rx="30.8" fill="#ffffff"/><g transform="translate(21.0,8.0)"><rect x="0" y="0" width="20" height="20" rx="4.5" fill="#0b47c9"/><rect x="26" y="0" width="20" height="20" rx="4.5" fill="#0b47c9"/><rect x="52" y="0" width="20" height="20" rx="4.5" fill="#0b47c9"/><rect x="78" y="0" width="20" height="20" rx="4.5" fill="#e4ecf9"/><rect x="0" y="26" width="20" height="20" rx="4.5" fill="#0b47c9"/><rect x="26" y="26" width="20" height="20" rx="4.5" fill="#e4ecf9"/><rect x="52" y="26" width="20" height="20" rx="4.5" fill="#e4ecf9"/><circle cx="88.0" cy="36.0" r="10.0" fill="#1bb9e0"/><rect x="0" y="52" width="20" height="20" rx="4.5" fill="#0b47c9"/><rect x="26" y="52" width="20" height="20" rx="4.5" fill="#0b47c9"/><rect x="52" y="52" width="20" height="20" rx="4.5" fill="#0b47c9"/><rect x="78" y="52" width="20" height="20" rx="4.5" fill="#e4ecf9"/><rect x="0" y="78" width="20" height="20" rx="4.5" fill="#0b47c9"/><rect x="26" y="78" width="20" height="20" rx="4.5" fill="#e4ecf9"/><rect x="52" y="78" width="20" height="20" rx="4.5" fill="#e4ecf9"/><rect x="78" y="78" width="20" height="20" rx="4.5" fill="#e4ecf9"/><rect x="0" y="104" width="20" height="20" rx="4.5" fill="#0b47c9"/><rect x="26" y="104" width="20" height="20" rx="4.5" fill="#e4ecf9"/><rect x="52" y="104" width="20" height="20" rx="4.5" fill="#e4ecf9"/><rect x="78" y="104" width="20" height="20" rx="4.5" fill="#e4ecf9"/></g></svg>
